<svg version="1.1" xmlns="http://www.w3.org/2000/svg" xmlns:xlink="http://www.w3.org/1999/xlink" width="142.67617" height="69.8977" viewBox="0,0,142.67617,69.8977"><g transform="translate(-2.10947,-6.70289)"><g data-paper-data="{&quot;isPaintingLayer&quot;:true}" fill-rule="nonzero" stroke="#000000" stroke-linejoin="miter" stroke-miterlimit="10" stroke-dasharray="" stroke-dashoffset="0" style="mix-blend-mode: normal"><path d="M142.78564,41.65195c0,18.01969 -2.08613,32.66115 -28.85687,32.94796c-0.26643,0.00285 -78.03182,0.00311 -78.27315,0.00077c-26.80571,-0.26003 -31.54615,-14.91209 -31.54615,-32.94873c0,-18.04441 4.75902,-32.70132 31.58075,-32.94906c0.22983,-0.00212 77.85247,-0.00233 78.0594,-0.0006c26.85359,0.22324 29.03602,14.8898 29.03602,32.94967z" fill="#9a9a9a" stroke-width="4" stroke-linecap="butt"/><path d="M130.39618,41.65191c0,14.94598 -1.73029,27.08997 -23.9346,27.32785c-0.22097,0.00236 -64.72152,0.00258 -64.92168,0.00064c-22.23332,-0.21568 -26.16515,-12.36846 -26.16515,-27.32849c0,-14.96648 3.94725,-27.12328 26.19386,-27.32876c0.19063,-0.00176 64.57276,-0.00193 64.74439,-0.0005c22.27303,0.18516 24.08319,12.34997 24.08319,27.32927z" fill="#50ccff" stroke-width="3" stroke-linecap="butt"/><path d="M66.15492,52.86839v-19.09091h14.84848v19.09091z" fill="#848484" stroke-width="3" stroke-linecap="butt"/><path d="M26.76098,53.47445l-4.24242,-21.9697h97.57576v7.87879h-51.51516l-17.95757,0.85548l-5.15325,12.82829z" fill="#848484" stroke-width="3" stroke-linecap="butt"/><path d="M60.39734,32.41385c0,0 0.4567,-1.93074 0.4567,-2.90765c0,-0.99254 -0.4567,-3.00144 -0.4567,-3.00144c0,0 20.15898,0 22.94916,0c0.62235,0 1.14175,1.06516 1.14175,1.7821c0,0.44539 0,1.21491 0,1.96969c0,1.09413 -0.69659,2.15729 -1.48427,2.15729c-3.07406,0 -22.60664,0 -22.60664,0z" fill="#848484" stroke-width="3" stroke-linecap="butt"/><path d="M32.06401,48.62597l-2.27273,-12.12121h9.24242v12.12121z" fill="#50ccff" stroke-width="3" stroke-linecap="butt"/><path d="M54.33674,36.9593h9.69697" fill="none" stroke-width="3" stroke-linecap="round"/><path d="M49.9428,44.9896l7.72727,-2.57576" fill="none" stroke-width="3" stroke-linecap="round"/></g></g></svg>