<svg version="1.1" xmlns="http://www.w3.org/2000/svg" xmlns:xlink="http://www.w3.org/1999/xlink" width="142.67617" height="69.8977" viewBox="0,0,142.67617,69.8977"><g transform="translate(-2.10947,-6.70289)"><g data-paper-data="{&quot;isPaintingLayer&quot;:true}" fill-rule="nonzero" stroke-linejoin="miter" stroke-miterlimit="10" stroke-dasharray="" stroke-dashoffset="0" style="mix-blend-mode: normal"><path d="M142.78564,41.65195c0,18.01969 -2.08613,32.66115 -28.85687,32.94796c-0.26643,0.00285 -78.03182,0.00311 -78.27315,0.00077c-26.80571,-0.26003 -31.54615,-14.91209 -31.54615,-32.94873c0,-18.04441 4.75902,-32.70132 31.58075,-32.94906c0.22983,-0.00212 77.85247,-0.00233 78.0594,-0.0006c26.85359,0.22324 29.03602,14.8898 29.03602,32.94967z" fill="#9a9a9a" stroke="#000000" stroke-width="4" stroke-linecap="butt"/><path d="M130.39618,41.65191c0,14.94598 -1.73029,27.08997 -23.9346,27.32785c-0.22097,0.00236 -64.72152,0.00258 -64.92168,0.00064c-22.23332,-0.21568 -26.16515,-12.36846 -26.16515,-27.32849c0,-14.96648 3.94725,-27.12328 26.19386,-27.32876c0.19063,-0.00176 64.57276,-0.00193 64.74439,-0.0005c22.27303,0.18516 24.08319,12.34997 24.08319,27.32927z" fill="#a5a5a5" stroke="#000000" stroke-width="3" stroke-linecap="butt"/><path d="M26.30644,55.29264c0,0 0.92875,-3.43637 2.15669,-7.97976c0.09757,-0.36103 2.7728,-0.42602 2.87384,-0.79986c0.30196,-1.11727 -1.95778,-2.58957 -1.63614,-3.77963c0.65575,-2.42627 1.33486,-4.93899 1.96588,-7.27376c0.49829,-1.84368 -2.9728,-3.72792 -2.56967,-5.21949c0.43086,-1.59416 4.72666,-2.76134 4.96565,-3.64564c0.6289,-2.3269 1.33465,-4.93822 1.33465,-4.93822" fill="none" stroke="#5d5d5d" stroke-width="3" stroke-linecap="round"/><path d="M44.48826,62.86839c0,0 -3.53303,-2.61841 -3.04653,-4.66481c0.19806,-0.83311 4.3488,-0.813 4.55141,-1.66525c0.65341,-2.74847 2.08944,-8.78891 3.5698,-15.01582c0.32351,-1.36077 5.3461,-2.57894 5.66613,-3.92511c0.39894,-1.67807 -3.90778,-3.47113 -3.54113,-5.01338c0.54834,-2.3065 1.04388,-4.39091 1.43669,-6.04324c0.55828,-2.34833 -1.81819,-4.12693 -1.81819,-4.12693" fill="none" stroke="#5d5d5d" stroke-width="3" stroke-linecap="round"/><path d="M76.30644,63.47445c0,0 1.32092,-5.85305 2.8359,-12.56598c0.24388,-1.08063 3.82612,-1.729 4.07535,-2.83337c0.21062,-0.93326 -2.91186,-2.3221 -2.70361,-3.24487c1.05618,-4.67995 2.04541,-9.06328 2.59764,-11.51021c0.48754,-2.16031 -3.33312,-5.15507 -2.92877,-6.94678c0.30759,-1.36292 4.91136,-1.83818 4.91136,-1.83818" fill="none" stroke="#5d5d5d" stroke-width="3" stroke-linecap="round"/><path d="M108.27614,55.29264c0,0 0.41287,-1.4221 0.95141,-3.27706c0.38474,-1.32522 3.25787,-2.56835 3.66617,-3.97473c0.41894,-1.443 -1.62909,-3.04189 -1.40871,-3.80097c0.38577,-1.32878 0.88205,-3.03816 0.88205,-3.03816" fill="none" stroke="#5d5d5d" stroke-width="3" stroke-linecap="round"/><path d="M101.00341,30.59567c0,0 -1.54119,-2.58127 -1.24359,-3.6725c0.30809,-1.12967 3.06177,-2.99417 3.06177,-2.99417" fill="none" stroke="#5d5d5d" stroke-width="3" stroke-linecap="round"/><path d="M62.21553,51.20173c0,0 1.43714,-0.88659 1.48065,-1.32163c0.05485,-0.54852 -1.17762,-1.70867 -1.17762,-1.70867" fill="none" stroke="#5d5d5d" stroke-width="3" stroke-linecap="round"/></g></g></svg>