<svg version="1.1" xmlns="http://www.w3.org/2000/svg" xmlns:xlink="http://www.w3.org/1999/xlink" width="28.73651" height="28.03901" viewBox="0,0,28.73651,28.03901"><g transform="translate(-224.26868,-163.78817)"><g data-paper-data="{&quot;isPaintingLayer&quot;:true}" fill-rule="nonzero" stroke="#000000" stroke-width="2.5" stroke-linecap="butt" stroke-linejoin="miter" stroke-miterlimit="10" stroke-dasharray="" stroke-dashoffset="0" style="mix-blend-mode: normal"><path d="M246.45098,179.49993c0,1.97303 3.58847,9.76014 3.58847,9.76014c0,0 -8.53402,-2.65627 -10.40563,-2.65627c-1.8182,0 -12.27409,0.78896 -12.27409,0.78896c0,0 5.45693,-5.86413 5.45693,-7.89282c0,-2.30412 -2.60383,-12.72199 -2.60383,-12.72199c0,0 7.86711,5.61812 9.42099,5.61812c1.53195,0 10.13682,-0.55958 10.13682,-0.55958c0,0 -3.31966,5.33647 -3.31966,7.66344z" fill="#ff0000"/><path d="M244.01202,176.71182c0.80725,1.06253 5.92578,3.78792 5.92578,3.78792c0,0 -5.68261,2.06115 -6.69052,2.82691c-0.97915,0.7439 -6.28715,5.44673 -6.28715,5.44673c0,0 0.53945,-5.39066 -0.29058,-6.48317c-0.94272,-1.24084 -6.60734,-5.78582 -6.60734,-5.78582c0,0 6.53528,-0.19325 7.37209,-0.82901c0.825,-0.62679 5.23002,-4.44875 5.23002,-4.44875c0,0 0.39565,4.23205 1.34771,5.48519z" fill="#ff9400"/><path d="M239.86923,177.02309c0.77796,0.08016 3.99418,-1.01842 3.99418,-1.01842c0,0 -1.39406,3.25703 -1.47009,3.995c-0.07386,0.71691 -0.18755,4.87169 -0.18755,4.87169c0,0 -2.09052,-2.38988 -2.89043,-2.4723c-0.90851,-0.09361 -5.12203,0.50985 -5.12203,0.50985c0,0 2.53481,-2.87375 2.59794,-3.48644c0.06224,-0.60404 0.19117,-4.01965 0.19117,-4.01965c0,0 1.96929,1.52573 2.88681,1.62026z" fill="#eeff00"/></g></g></svg>