<svg version="1.1" xmlns="http://www.w3.org/2000/svg" xmlns:xlink="http://www.w3.org/1999/xlink" width="71.46477" height="54.13507" viewBox="0,0,71.46477,54.13507"><g transform="translate(-211.33983,-148.08581)"><g data-paper-data="{&quot;isPaintingLayer&quot;:true}" fill-rule="nonzero" stroke-linejoin="miter" stroke-miterlimit="10" stroke-dasharray="" stroke-dashoffset="0" style="mix-blend-mode: normal"><path d="M263.31085,187.34818l-0.39805,-9.28788l0.92879,-0.13268c0,0 8.62446,-1.24012 8.62446,0.13268c0,0.67661 -6.6342,0.57892 -6.6342,1.85758c0,1.26518 5.53988,2.55686 6.41222,4.10555c0.33988,0.60341 -5.66774,-0.11329 -5.52214,0.48304c0.25074,1.02697 4.9202,1.78875 5.86664,2.85075c0.51795,0.5812 -5.79896,-0.81882 -5.79067,-0.28113c0.01842,1.19455 5.66814,4.11992 5.66814,4.11992z" fill="#fff766" stroke="none" stroke-width="0" stroke-linecap="butt"/><path d="M258.11969,187.6161c0,3.36352 -2.8093,6.0902 -6.27475,6.0902c-3.46545,0 -6.27475,-2.72667 -6.27475,-6.0902c0,-3.36352 2.8093,-6.0902 6.27475,-6.0902c3.46545,0 6.27475,2.72667 6.27475,6.0902z" fill="#d0ff66" stroke="#000000" stroke-width="3.5" stroke-linecap="butt"/><path d="M248.70903,188.2663v-8.80146c0,0 11.95656,0 14.47764,0c0.89133,0 1.8097,2.19565 1.8097,3.47787c0,1.58637 -0.78013,5.32359 -1.56841,5.32359c-2.41486,0 -14.71893,0 -14.71893,0z" fill="#949494" stroke="#000000" stroke-width="3.5" stroke-linecap="butt"/><path d="M258.26189,178.1788c0,3.36352 -2.8093,6.0902 -6.27475,6.0902c-3.46545,0 -6.27475,-2.72667 -6.27475,-6.0902c0,-3.36352 2.8093,-6.0902 6.27475,-6.0902c3.46545,0 6.27475,2.72667 6.27475,6.0902z" fill="#d0ff66" stroke="#000000" stroke-width="3.5" stroke-linecap="butt"/><path d="M226.63715,180.75c0,-6.68979 5.42315,-12.11294 12.11294,-12.11294c6.68979,0 12.11294,5.42315 12.11294,12.11294c0,6.68979 -5.42315,12.11294 -12.11294,12.11294c-6.68979,0 -12.11294,-5.42315 -12.11294,-12.11294z" fill="#d0ff66" stroke="#540000" stroke-width="3.5" stroke-linecap="butt"/><path d="M214.75006,202.22088v-54.13507h68.05454v54.13507z" fill="none" stroke="none" stroke-width="0" stroke-linecap="butt"/><path d="M228.58984,174.71584l-12.5,-4.625" fill="none" stroke="#540000" stroke-width="3.5" stroke-linecap="round"/><path d="M226.21484,180.84084l-13.125,-0.625" fill="none" stroke="#540000" stroke-width="3.5" stroke-linecap="round"/></g></g></svg>