<svg version="1.1" xmlns="http://www.w3.org/2000/svg" xmlns:xlink="http://www.w3.org/1999/xlink" width="71.46477" height="54.13507" viewBox="0,0,71.46477,54.13507"><g transform="translate(-211.33982,-148.08581)"><g data-paper-data="{&quot;isPaintingLayer&quot;:true}" fill-rule="nonzero" stroke-linejoin="miter" stroke-miterlimit="10" stroke-dasharray="" stroke-dashoffset="0" style="mix-blend-mode: normal"><path d="M258.11969,187.6161c0,3.36352 -2.8093,6.0902 -6.27475,6.0902c-3.46545,0 -6.27475,-2.72667 -6.27475,-6.0902c0,-3.36352 2.8093,-6.0902 6.27475,-6.0902c3.46545,0 6.27475,2.72667 6.27475,6.0902z" fill="#ffe366" stroke="#000000" stroke-width="3.5" stroke-linecap="butt"/><path d="M248.70901,188.2663v-8.80146c0,0 11.95656,0 14.47764,0c0.89133,0 1.8097,2.19565 1.8097,3.47787c0,1.58637 -0.78013,5.32359 -1.56841,5.32359c-2.41486,0 -14.71893,0 -14.71893,0z" fill="#949494" stroke="#000000" stroke-width="3.5" stroke-linecap="butt"/><path d="M258.26189,178.1788c0,3.36352 -2.8093,6.0902 -6.27475,6.0902c-3.46545,0 -6.27475,-2.72667 -6.27475,-6.0902c0,-3.36352 2.8093,-6.0902 6.27475,-6.0902c3.46545,0 6.27475,2.72667 6.27475,6.0902z" fill="#ffe366" stroke="#000000" stroke-width="3.5" stroke-linecap="butt"/><path d="M226.63714,180.75c0,-6.68979 5.42315,-12.11294 12.11294,-12.11294c6.68979,0 12.11294,5.42315 12.11294,12.11294c0,6.68979 -5.42315,12.11294 -12.11294,12.11294c-6.68979,0 -12.11294,-5.42315 -12.11294,-12.11294z" fill="#ffe366" stroke="#540000" stroke-width="3.5" stroke-linecap="butt"/><path d="M214.75005,202.22088v-54.13507h68.05454v54.13507z" fill="none" stroke="none" stroke-width="0" stroke-linecap="butt"/><path d="M228.58982,174.71584l-12.5,-4.625" fill="none" stroke="#540000" stroke-width="3.5" stroke-linecap="round"/><path d="M226.21482,180.84084l-13.125,-0.625" fill="none" stroke="#540000" stroke-width="3.5" stroke-linecap="round"/></g></g></svg>