<svg version="1.1" xmlns="http://www.w3.org/2000/svg" xmlns:xlink="http://www.w3.org/1999/xlink" width="666.96976" height="511.67949" viewBox="0,0,666.96976,511.67949"><g transform="translate(66.27731,23.57583)"><g data-paper-data="{&quot;isPaintingLayer&quot;:true}" fill-rule="nonzero" stroke-linejoin="miter" stroke-miterlimit="10" stroke-dasharray="" stroke-dashoffset="0" style="mix-blend-mode: normal"><path d="M-6.5,363.5v-367h493v367z" fill="#66b1ff" stroke="#000000" stroke-width="2" stroke-linecap="butt"/><path d="M-2.88149,381.66667v-153.69865h488.33333v153.69865z" fill="#c1c1c1" stroke="none" stroke-width="0" stroke-linecap="butt"/><path d="M-42.63997,386.53547v-86.42857h637.58242v86.42857z" fill="#393939" stroke="#000000" stroke-width="11.5" stroke-linecap="butt"/><path d="M-30.23303,448.06794v-78.57143h544.28571v78.57143z" fill="#838383" stroke="#000000" stroke-width="11.5" stroke-linecap="butt"/><path d="M-23.76625,170.13174c0,0 12.7035,-7.4863 30.22936,-3.73383c14.24984,3.05104 24.85702,23.94902 24.85702,23.94902" fill="none" stroke="#540000" stroke-width="11.5" stroke-linecap="round"/><path d="M39.40621,90.78714c0,0 7.24199,13.48217 4.84581,22.51955c-1.94791,7.34672 -4.06359,20.73108 -8.41681,30.7504c-5.07308,11.67613 -7.04197,41.23604 -7.04197,41.23604" fill="none" stroke="#540000" stroke-width="11.5" stroke-linecap="round"/><g stroke="#000000"><path d="M424.24217,186.39905l-3.91567,-10.89295c0,0 24.15735,-9.5213 28.43174,-11.20599c1.24457,-0.49053 3.02547,0.76097 3.46202,1.97539c0.43652,1.21434 1.39553,3.88221 2.08361,5.79638c0.44754,1.245 0.15645,2.4171 -0.60018,2.71532c-3.49521,1.37759 -29.46151,11.61186 -29.46151,11.61186z" fill="#848484" stroke-width="6" stroke-linecap="butt"/><g><g stroke-width="5"><path d="M423.58659,214.41769l-11.38433,-29.73944l20.18583,-7.72719l11.38433,29.73944z" fill="#848484" stroke-linecap="butt"/><path d="M381.62719,212.99979c0,0 -5.02083,-13.11598 -6.66888,-17.42121c-0.97076,-2.53594 -0.31356,-6.81028 1.91264,-7.66249c8.37909,-3.20754 59.87509,-22.92033 59.87509,-22.92033c0,0 5.61633,14.67163 7.20973,18.83406c0.79017,2.06418 0.63381,5.06779 -0.78045,5.60917c-4.0906,1.56589 -46.84347,17.9318 -46.84347,17.9318l7.98963,19.02535l-15.00575,5.56756z" fill="#848484" stroke-linecap="butt"/><path d="M410.75027,203.96114c0,0 3.30281,5.83427 1.6146,8.02918c-1.4052,1.82697 -11.0515,4.24014 -11.0515,4.24014" fill="none" stroke-linecap="round"/></g><path d="M388.35011,210.64516c3.29802,-1.9146 25.50886,-8.41437 24.90354,5.81445c4.96555,8.31309 1.86664,19.18804 -6.92164,24.28991c-8.78828,5.10186 -19.93797,2.49864 -24.90353,-5.81444c-4.96555,-8.31309 -1.86664,-19.18804 6.92164,-24.28991z" fill="#d866ff" stroke-width="6" stroke-linecap="butt"/></g></g><g stroke="#000000"><path d="M303.61527,214.1922c0,-25.33943 20.54167,-45.88111 45.88111,-45.88111c25.33944,0 45.8811,20.54167 45.8811,45.88111c0,25.33944 -20.54167,45.8811 -45.8811,45.8811c-25.33943,0 -45.88111,-20.54167 -45.88111,-45.8811z" data-paper-data="{&quot;index&quot;:null}" fill="#d866ff" stroke-width="6" stroke-linecap="butt"/><path d="M364.82209,226.06343l-4.36423,-10.7822l-5.35568,10.82205l-32.7597,0.13428l-5.09307,-12.93922l84.95922,-0.34826l-7.5068,12.99088z" data-paper-data="{&quot;index&quot;:null}" fill="#000000" stroke-width="0" stroke-linecap="butt"/><path d="M304.97354,199.71465c9.11083,0 16.4966,9.10333 16.4966,20.33286c0,11.22953 -7.38578,20.33286 -16.4966,20.33286c-9.11083,0 -16.4966,-9.10333 -16.4966,-20.33286c0,-11.22953 7.38579,-20.33286 16.4966,-20.33286z" data-paper-data="{&quot;index&quot;:null}" fill="#000000" stroke-width="6" stroke-linecap="butt"/><path d="M308.03204,203.66148c0,0 -0.84051,-29.06698 48.71091,-27.49405c37.43154,1.18819 34.83064,23.07387 34.83064,23.07387" data-paper-data="{&quot;index&quot;:null}" fill="none" stroke-width="6" stroke-linecap="round"/></g><path d="M326.17802,233.66351c3.34711,9.88142 -2.30982,20.84395 -12.63509,24.48549c-10.32528,3.64154 -21.40892,-1.41688 -24.75603,-11.29831c-1.0659,-3.14679 -4.3653,-16.55613 12.63509,-24.4855c0,0 16.94622,-5.40841 24.75602,11.29831z" data-paper-data="{&quot;index&quot;:null}" fill="#d866ff" stroke="#000000" stroke-width="6" stroke-linecap="butt"/><path d="M249.37132,241.08239c7.45967,2.63089 74.80262,-1.94134 75.25161,5.39134c1.79976,29.393 -50.92356,17.73238 -49.775,23.46229c1.19425,5.95785 0.90014,12.22703 -1.1519,18.28514c-6.44375,19.02343 -27.78167,28.76176 -47.65959,21.75117c-19.87791,-7.01059 -30.76845,-28.11534 -24.3247,-47.13876c6.44375,-19.02343 27.78167,-28.76176 47.65959,-21.75117z" fill="#d0ff66" stroke="#000000" stroke-width="6" stroke-linecap="butt"/><path d="M101.71132,346.92008c-55.24072,-6.80231 -94.61802,-58.01128 -87.95164,-114.37846c6.66637,-56.36716 56.85198,-96.54742 112.09272,-89.74511c55.24072,6.80231 94.61802,58.01128 87.95164,114.37846c-6.66637,56.36716 -56.85198,96.54742 -112.09272,89.74511z" data-paper-data="{&quot;index&quot;:null}" fill="#d0ff66" stroke="#000000" stroke-width="6" stroke-linecap="butt"/><path d="M203.69957,196.16558c0,0 -20.60809,2.29686 -52.14307,1.86702c-27.85646,-0.3797 -65.99405,-3.44121 -80.75322,-4.12517c-17.85785,-0.82756 -39.466,-5.72937 -39.466,-5.72937" fill="none" stroke="#540000" stroke-width="11.5" stroke-linecap="round"/><path d="M73.77073,244.44885l-14.37247,-30.2769l91.53211,16.49787l94.48699,-1.55969l-13.21512,28.0615l-71.72769,-5.76007l-10.00651,-17.92581l-11.27534,16.21677z" fill="#000000" stroke="#000000" stroke-width="6" stroke-linecap="butt"/><path d="M-60.52731,482.35366v-86.42857h637.58242v86.42857z" fill="#393939" stroke="#000000" stroke-width="11.5" stroke-linecap="butt"/><path d="M128.43679,27.56701c0,16.96135 -6.56062,23.06464 -29.1858,27.43214c-2.24801,0.43395 -12.43418,3.6797 -14.83814,4.02631c-1.95391,0.28172 -2.52875,-5.1786 -4.5784,-4.95057c-11.074,1.23198 -24.92613,7.4207 -38.18338,7.4207c-11.48412,0 -24.25274,5.33376 -35.5499,0.83361c-14.70498,-5.85763 -29.55563,-6.71143 -38.76735,-12.49103c-13.97714,-8.76951 -16.75418,-9.60963 -16.75418,-22.27115c0,-14.44817 28.19964,-14.59758 45.84743,-23.66957c15.84084,-8.14312 19.84922,-25.97328 43.08115,-25.97328c8.23085,0 15.36577,0.29032 21.83187,1.01907c12.44855,1.403 22.41816,4.43102 32.9565,10.14094c7.31261,3.96215 6.21557,13.45654 12.29921,19.23655c7.76873,7.381 21.841,11.40796 21.841,19.24629z" fill="#e8e8e8" stroke="#000000" stroke-width="3" stroke-linecap="butt"/><path d="M42.05925,18.39184c0.2466,1.47959 -1.23299,1.72619 -1.23299,1.72619l-1.32653,0.22109c-0.68708,-0.00561 -1.39742,-0.19417 -2.06125,-0.01683c-0.72099,0.1926 1.0846,1.03141 1.6873,1.47149c0.73843,0.53919 1.34592,1.27038 2.15375,1.69866c2.28855,1.21329 5.32138,1.70526 7.77093,2.61796c3.28122,-1.63311 6.83834,-2.17062 10.37541,-3.09007c0.78616,-0.20436 1.72118,-0.07502 2.37109,-0.56228c1.5582,-1.16823 2.54664,-5.02698 2.99341,-6.80276c0.64803,-2.57574 1.85391,-5.38766 1.47227,-8.10078c-0.10178,-0.72357 -2.03009,-2.76065 -2.05762,-2.79397c-4.62932,-5.60367 -11.8735,-3.90371 -18.53216,-3.9107c-7.00823,0.88377 -13.58894,2.96676 -19.88115,6.20544c-0.40763,0.20981 -4.4272,2.22143 -4.88726,2.66498c-1.3574,1.3087 -2.03707,3.17359 -3.07158,4.74998c-4.36154,6.64619 -7.50776,15.23528 -7.03238,23.30582c0.07235,1.53626 -0.11496,3.55356 0.93982,4.91221c2.41466,3.11031 8.78291,4.32462 12.27132,5.63518c7.24051,2.7202 13.66159,7.46732 21.20385,9.57073c2.30953,0.64409 5.25905,0.46231 7.64283,0.67901c0,0 1.49384,0.1358 1.35804,1.62964c-0.1358,1.49384 -1.62964,1.35804 -1.62964,1.35804c-2.54366,-0.23124 -5.60019,-0.07626 -8.07145,-0.74956c-6.75442,-1.84025 -12.57181,-5.80059 -18.84534,-8.66596c-4.66308,-2.12982 -9.63925,-3.08629 -13.94364,-5.96445c-0.7768,-0.51941 -1.74928,-0.84269 -2.30729,-1.59225c-1.70491,-2.29015 -1.45643,-4.04394 -1.61407,-6.64982c-0.44024,-8.74356 2.7843,-17.89653 7.51971,-25.1144c0.21855,-0.33312 3.344,-5.11698 3.50165,-5.26778c0.84663,-0.80982 4.49353,-2.60276 5.59214,-3.16859c6.66672,-3.43367 13.63954,-5.61153 21.06803,-6.53242c5.74896,-0.00565 14.15831,-1.64915 18.88165,2.46409c1.46003,1.27144 4.45088,4.4603 4.81428,6.54553c0.5691,3.26554 -0.68927,6.43134 -1.48451,9.52924c-0.6241,2.43118 -1.93437,6.81318 -4.0498,8.42436c-0.946,0.7205 -2.26107,0.73777 -3.39805,1.08605c-3.73676,1.14464 -7.41183,1.67707 -11.03362,3.20091c-4.24989,-1.25208 -8.44181,-2.11929 -11.92931,-4.94153c-1.52879,-1.23717 -4.55961,-2.93204 -2.13767,-5.7811c0.86044,-1.01218 2.57141,-0.66882 3.85711,-1.00323l1.32653,-0.22109c0,0 1.47959,-0.2466 1.72619,1.23299z" fill="#000000" stroke="none" stroke-width="0.5" stroke-linecap="butt"/><path d="M462.70509,42.18335c0,7.74691 -2.99649,10.53452 -13.33029,12.52932c-1.02675,0.1982 -5.67917,1.68066 -6.77715,1.83897c-0.89243,0.12867 -1.15498,-2.36527 -2.09113,-2.26112c-5.05793,0.56269 -11.38473,3.38932 -17.43983,3.38932c-5.24524,0 -11.07717,2.43614 -16.23702,0.38074c-6.71634,-2.67541 -13.4992,-3.06537 -17.70655,-5.70514c-6.3839,-4.00538 -7.65228,-4.38909 -7.65228,-10.1721c0,-6.59904 12.87987,-6.66728 20.9403,-10.81081c7.23513,-3.71928 9.06591,-11.86301 19.67683,-11.86301c3.75935,0 7.01814,0.1326 9.97146,0.46545c5.68574,0.6408 10.23924,2.02382 15.05251,4.63176c3.33995,1.80967 2.83889,6.14612 5.61753,8.78608c3.54828,3.37119 9.97563,5.21046 9.97563,8.79053z" fill="#e8e8e8" stroke="#000000" stroke-width="3" stroke-linecap="butt"/><path d="M423.25311,37.99269c0.11263,0.67579 -0.56315,0.78842 -0.56315,0.78842l-0.60588,0.10098c-0.31382,-0.00256 -0.63826,-0.08868 -0.94145,-0.00769c-0.3293,0.08797 0.49538,0.47108 0.77066,0.67209c0.33727,0.24627 0.61473,0.58023 0.9837,0.77584c1.04527,0.55416 2.43048,0.77886 3.54929,1.19572c1.49866,-0.7459 3.12334,-0.99141 4.73885,-1.41135c0.35907,-0.09334 0.78613,-0.03426 1.08297,-0.25682c0.71169,-0.53358 1.16315,-2.29602 1.36721,-3.10708c0.29598,-1.17644 0.84675,-2.46075 0.67244,-3.69994c-0.04649,-0.33048 -0.92722,-1.2609 -0.93979,-1.27611c-2.11439,-2.55941 -5.42309,-1.78298 -8.46436,-1.78617c-3.20093,0.40365 -6.2066,1.35503 -9.08049,2.83427c-0.18618,0.09583 -2.02207,1.01461 -2.2322,1.2172c-0.61998,0.59773 -0.93041,1.4495 -1.40291,2.1695c-1.99208,3.03557 -3.42909,6.95854 -3.21196,10.64467c0.03305,0.70167 -0.05251,1.62305 0.42925,2.2436c1.10287,1.4206 4.0115,1.97522 5.60479,2.57381c3.30702,1.24242 6.23978,3.41061 9.68462,4.37132c1.05485,0.29418 2.40201,0.21115 3.49078,0.31013c0,0 0.68229,0.06203 0.62027,0.74432c-0.06203,0.68229 -0.74432,0.62027 -0.74432,0.62027c-1.16179,-0.10562 -2.55782,-0.03483 -3.68654,-0.34235c-3.08501,-0.84051 -5.74203,-2.64935 -8.6074,-3.95808c-2.12981,-0.97277 -4.40262,-1.40963 -6.3686,-2.7242c-0.35479,-0.23723 -0.79896,-0.38489 -1.05383,-0.72724c-0.7787,-1.046 -0.66521,-1.84702 -0.73721,-3.03723c-0.20107,-3.99352 1.2717,-8.17404 3.43454,-11.47072c0.09982,-0.15215 1.52733,-2.33712 1.59934,-2.406c0.38669,-0.36988 2.05237,-1.18878 2.55415,-1.44722c3.04495,-1.56829 6.22971,-2.563 9.62259,-2.98361c2.62577,-0.00258 6.46665,-0.75323 8.62398,1.12545c0.66685,0.58072 2.03289,2.03719 2.19887,2.9896c0.25993,1.4915 -0.31482,2.93744 -0.67803,4.35237c-0.28505,1.11041 -0.8835,3.11184 -1.8497,3.84773c-0.43207,0.32908 -1.03272,0.33697 -1.55202,0.49604c-1.70672,0.5228 -3.38527,0.76598 -5.03948,1.46198c-1.94109,-0.57187 -3.8557,-0.96796 -5.44858,-2.25699c-0.69826,-0.56506 -2.08255,-1.33918 -0.97636,-2.64045c0.393,-0.4623 1.17446,-0.30548 1.76169,-0.45821l0.60588,-0.10098c0,0 0.67579,-0.11263 0.78842,0.56315z" fill="#000000" stroke="none" stroke-width="0.5" stroke-linecap="butt"/><g stroke="#000000" stroke-width="6"><g><path d="M190.70056,346.86844l6.49662,-16.78024l41.9506,16.24154l-6.49662,16.78024z" fill="#848484" stroke-linecap="butt"/><path d="M79.79335,284.31176c0,0 7.25755,-4.46791 12.04677,-2.56051c18.02584,7.17917 128.80852,51.30078 128.80852,51.30078c0,0 -6.72366,16.46068 -10.29,25.41525c-1.76858,4.44063 -6.41919,8.98804 -9.46168,7.7763c-8.80006,-3.50482 -107.15026,-42.60403 -107.15026,-42.60403l-11.04314,15.63312l51.29437,26.0298l17.33184,20.80245l-79.88672,-32.29258l-5.62638,6.85444l-32.02275,-13.13784z" fill="#848484" stroke-linecap="butt"/><path d="M109.4103,331.5134c0,0 -1.71138,8.15063 -5.53848,8.55871c-3.18554,0.33967 -15.85458,-6.27764 -15.85458,-6.27764" fill="none" stroke-linecap="round"/></g><path d="M62.61529,301.33307c7.45967,2.63089 47.60269,28.95155 24.32471,47.13877c-6.44375,19.02343 -27.78167,28.76176 -47.65959,21.75117c-19.87791,-7.01059 -30.76845,-28.11534 -24.3247,-47.13876c6.44375,-19.02343 27.78167,-28.76176 47.65959,-21.75117z" fill="#d0ff66" stroke-linecap="butt"/></g></g></g></svg>