<svg version="1.1" xmlns="http://www.w3.org/2000/svg" xmlns:xlink="http://www.w3.org/1999/xlink" width="142.67617" height="69.8977" viewBox="0,0,142.67617,69.8977"><g transform="translate(-2.10947,-6.70289)"><g data-paper-data="{&quot;isPaintingLayer&quot;:true}" fill-rule="nonzero" stroke="#000000" stroke-linejoin="miter" stroke-miterlimit="10" stroke-dasharray="" stroke-dashoffset="0" style="mix-blend-mode: normal"><path d="M142.78564,41.65195c0,18.01969 -2.08613,32.66115 -28.85687,32.94796c-0.26643,0.00285 -78.03182,0.00311 -78.27315,0.00077c-26.80571,-0.26003 -31.54615,-14.91209 -31.54615,-32.94873c0,-18.04441 4.75902,-32.70132 31.58075,-32.94906c0.22983,-0.00212 77.85247,-0.00233 78.0594,-0.0006c26.85359,0.22324 29.03602,14.8898 29.03602,32.94967z" fill="#9a9a9a" stroke-width="4" stroke-linecap="butt"/><path d="M130.39618,41.65191c0,14.94598 -1.73029,27.08997 -23.9346,27.32785c-0.22097,0.00236 -64.72152,0.00258 -64.92168,0.00064c-22.23332,-0.21568 -26.16515,-12.36846 -26.16515,-27.32849c0,-14.96648 3.94725,-27.12328 26.19386,-27.32876c0.19063,-0.00176 64.57276,-0.00193 64.74439,-0.0005c22.27303,0.18516 24.08319,12.34997 24.08319,27.32927z" fill="#50ccff" stroke-width="3" stroke-linecap="butt"/><path d="M27.21553,49.9896l3.48485,-11.51515c0,0 6.02829,-8.33333 8.93939,-8.33333c11.68477,0 80.90909,-1.36364 80.90909,-1.36364v11.51515c0,0 -69.20886,-2.52822 -72.12121,0c-10.31133,8.95128 -5.64559,3.42832 -10.90909,9.69697c-1.18006,1.40541 -10.30303,0 -10.30303,0z" fill="#848484" stroke-width="3" stroke-linecap="butt"/><path d="M71.76098,44.68657c0,0 0,-4.61515 0,-6.51515c0,-1.47743 0.96779,-3.93939 2.12121,-3.93939c4.1323,0 28.79821,0 38.0303,0c2.16798,0 3.48485,1.69149 3.48485,2.87879c0,1.92605 0,7.57576 0,7.57576z" fill="#595959" stroke-width="3" stroke-linecap="butt"/><path d="M45.70038,43.77748c0,0 3.97308,2.08636 6.0989,1.44367c2.21403,-0.66936 6.93141,-5.38307 6.93141,-5.38307" fill="none" stroke-width="3" stroke-linecap="round"/></g></g></svg>