<svg version="1.1" xmlns="http://www.w3.org/2000/svg" xmlns:xlink="http://www.w3.org/1999/xlink" width="77.98445" height="54.13507" viewBox="0,0,77.98445,54.13507"><g transform="translate(-219.92468,-139.59407)"><g data-paper-data="{&quot;isPaintingLayer&quot;:true}" fill-rule="nonzero" stroke-linecap="butt" stroke-linejoin="miter" stroke-miterlimit="10" stroke-dasharray="" stroke-dashoffset="0" style="mix-blend-mode: normal"><path d="M283.75393,180.5206l-0.39805,-9.28788l0.92879,-0.13268c0,0 13.62446,-8.27716 13.62446,-6.90436c0,0.12355 -5.4064,6.61018 -5.76804,6.69519c-1.61881,0.38053 -2.90319,1.61722 -2.90319,2.66239c0,1.26518 6.92877,2.37167 7.80111,3.92036c0.33988,0.60341 -10.01959,-0.39107 -9.87399,0.20526c0.25074,1.02697 8.25353,3.82579 9.19997,4.88779c0.51795,0.5812 -9.13229,-2.85586 -9.124,-2.31817c0.01842,1.19455 3.53851,7.91622 3.53851,7.91622z" fill="#fff766" stroke="none" stroke-width="0"/><path d="M262.29891,176.98901c0,3.36352 -2.8093,6.0902 -6.27475,6.0902c-3.46545,0 -6.27475,-2.72667 -6.27475,-6.0902c0,-3.36352 2.8093,-6.0902 6.27475,-6.0902c3.46545,0 6.27475,2.72667 6.27475,6.0902z" fill="#66ddff" stroke="#000000" stroke-width="3.5"/><path d="M219.92468,193.72915v-54.13507h58.1952v54.13507z" fill="none" stroke="none" stroke-width="0"/><path d="M282.29891,179.85938c0,3.36352 -2.8093,6.0902 -6.27475,6.0902c-3.46545,0 -6.27475,-2.72667 -6.27475,-6.0902c0,-3.36352 2.8093,-6.0902 6.27475,-6.0902c3.46545,0 6.27475,2.72667 6.27475,6.0902z" fill="#66ddff" stroke="#000000" stroke-width="3.5"/><path d="M266.15385,181.48589c-0.83556,0 -1.66248,-4.12026 -1.66248,-5.86922c0,-1.41363 0.97345,-3.83432 1.91824,-3.83432c2.67229,0 15.34595,0 15.34595,0v9.70354c0,0 -13.04202,0 -15.60172,0z" data-paper-data="{&quot;index&quot;:null}" fill="#949494" stroke="#5a5a5a" stroke-width="3.5"/><path d="M258.76222,180.28219c-1.3554,0 -2.69677,-3.41257 -2.69677,-4.86113c0,-1.17083 1.57908,-3.17574 3.11166,-3.17574c4.33482,0 24.89327,0 24.89327,0v8.03688c0,0 -21.15599,0 -25.30816,0z" data-paper-data="{&quot;index&quot;:null}" fill="#949494" stroke="#000000" stroke-width="3.5"/><path d="M249.75205,193.59649v-25.7407h38.74373v25.7407z" fill="none" stroke="none" stroke-width="0"/></g></g></svg>