<svg version="1.1" xmlns="http://www.w3.org/2000/svg" xmlns:xlink="http://www.w3.org/1999/xlink" width="69.9461" height="54.13507" viewBox="0,0,69.9461,54.13507"><g transform="translate(-219.92468,-139.59404)"><g data-paper-data="{&quot;isPaintingLayer&quot;:true}" fill-rule="nonzero" stroke-linejoin="miter" stroke-miterlimit="10" stroke-dasharray="" stroke-dashoffset="0" style="mix-blend-mode: normal"><path d="M259.23464,169.2951c1.7343,2.88192 0.73317,6.66672 -2.23609,8.45357c-2.96926,1.78685 -6.78224,0.89913 -8.51654,-1.98281c-1.7343,-2.88192 -0.73317,-6.66672 2.23609,-8.45357c2.96926,-1.78685 6.78224,-0.89913 8.51654,1.98281z" fill="#66ddff" stroke="#000000" stroke-width="3.5" stroke-linecap="butt"/><path d="M219.92468,193.72911v-54.13507h58.1952v54.13507z" fill="none" stroke="none" stroke-width="0" stroke-linecap="butt"/><path d="M257.53648,173.04517l-3.63587,-6.04181l8.37985,-4.69095l14.00131,-0.85727z" fill="#949494" stroke="#000000" stroke-width="3.5" stroke-linecap="butt"/><path d="M251.12705,193.34646v-25.7407c0,0 26.03813,0 33.02068,0c3.69422,0 5.72305,0 5.72305,0v25.7407z" fill="none" stroke="none" stroke-width="0" stroke-linecap="butt"/><path d="M274.40988,161.20767l-7.00255,2.69329c0,0 4.67675,5.42494 5.89325,8.04157c0.66375,1.42769 1.9832,5.62511 1.14729,9.87626c-0.62479,3.17747 -3.40461,6.86041 -3.40461,6.86041" fill="none" stroke="#ffffff" stroke-width="3.5" stroke-linecap="round"/><path d="M274.81388,162.01566l0.13466,18.58368" fill="none" stroke="#ffffff" stroke-width="3.5" stroke-linecap="round"/><path d="M271.44727,167.5369v-3.63594h2.42396v3.63594z" fill="none" stroke="#ffffff" stroke-width="3.5" stroke-linecap="butt"/></g></g></svg>