<svg version="1.1" xmlns="http://www.w3.org/2000/svg" xmlns:xlink="http://www.w3.org/1999/xlink" width="67.5459" height="67.125" viewBox="0,0,67.5459,67.125"><defs><radialGradient cx="238.375" cy="180" r="31.8125" gradientUnits="userSpaceOnUse" id="color-1"><stop offset="0" stop-color="#3fff72"/><stop offset="1" stop-color="#d0ff87"/></radialGradient></defs><g transform="translate(-204.8125,-146.4375)"><g data-paper-data="{&quot;isPaintingLayer&quot;:true}" fill-rule="nonzero" stroke-linejoin="miter" stroke-miterlimit="10" stroke-dasharray="" stroke-dashoffset="0" style="mix-blend-mode: normal"><path d="M222.07143,194.21432v-28.42857h35.85714v28.42857z" fill="none" stroke="none" stroke-width="0" stroke-linecap="butt"/><path d="M206.5625,180c0,-8.02109 5.21855,-18.22383 8.49195,-20.06953c7.71155,-4.34814 13.77208,-11.74297 23.32055,-11.74297c9.23573,0 19.6581,2.50437 23.36385,10.2214c3.7441,7.7969 8.44865,13.25727 8.44865,21.5911c0,7.13125 2.52856,1.96446 -4.80937,14.39468c-2.16891,3.67407 -11.29036,9.98912 -11.3162,10.01642c-6.65611,7.03125 -12.45662,7.4014 -15.68693,7.4014c-8.2419,0 -17.00175,-5.63424 -19.9027,-9.77585c-4.96049,-7.08199 -11.9098,-12.70899 -11.9098,-22.03665z" fill="url(#color-1)" stroke="#ffffff" stroke-width="3.5" stroke-linecap="butt"/><path d="M218.0625,186.31252c0,0 -2.23727,-1.89751 -1.07168,-9.9854c1.41585,-9.82443 6.44668,-9.6396 6.44668,-9.6396" fill="none" stroke="#ffffff" stroke-width="3.5" stroke-linecap="round"/><path d="M245.3125,154.68752c0,0 9.63509,3.88616 12.33851,7.41142c2.4868,3.24278 3.28649,12.96358 3.28649,12.96358" fill="none" stroke="#ffffff" stroke-width="3.5" stroke-linecap="round"/><path d="M248.0625,192.93752c0,0 -0.48153,1.92348 -1.91197,2.66892c-1.52219,0.79325 -6.96303,1.95608 -6.96303,1.95608" fill="none" stroke="#ffffff" stroke-width="3.5" stroke-linecap="round"/></g></g></svg>