<svg version="1.1" xmlns="http://www.w3.org/2000/svg" xmlns:xlink="http://www.w3.org/1999/xlink" width="68.5711" height="54.13507" viewBox="0,0,68.5711,54.13507"><g transform="translate(-219.92468,-139.59407)"><g data-paper-data="{&quot;isPaintingLayer&quot;:true}" fill-rule="nonzero" stroke-linecap="butt" stroke-linejoin="miter" stroke-miterlimit="10" stroke-dasharray="" stroke-dashoffset="0" style="mix-blend-mode: normal"><path d="M265.35447,176.98901c0,3.36352 -2.8093,6.0902 -6.27475,6.0902c-3.46545,0 -6.27475,-2.72667 -6.27475,-6.0902c0,-3.36352 2.8093,-6.0902 6.27475,-6.0902c3.46545,0 6.27475,2.72667 6.27475,6.0902z" fill="#66ddff" stroke="#000000" stroke-width="3.5"/><path d="M219.92468,193.72915v-54.13507h58.1952v54.13507z" fill="none" stroke="none" stroke-width="0"/><path d="M280.26188,179.85938c0,3.36352 -2.8093,6.0902 -6.27475,6.0902c-3.46545,0 -6.27475,-2.72667 -6.27475,-6.0902c0,-3.36352 2.8093,-6.0902 6.27475,-6.0902c3.46545,0 6.27475,2.72667 6.27475,6.0902z" fill="#66ddff" stroke="#000000" stroke-width="3.5"/><path d="M264.11682,181.48589c-0.83556,0 -1.66248,-4.12026 -1.66248,-5.86922c0,-1.41363 0.97345,-3.83432 1.91824,-3.83432c2.67229,0 15.34595,0 15.34595,0v9.70354c0,0 -13.04202,0 -15.60172,0z" data-paper-data="{&quot;index&quot;:null}" fill="#949494" stroke="#5a5a5a" stroke-width="3.5"/><path d="M260.70666,180.28219c-1.3554,0 -2.69677,-3.41257 -2.69677,-4.86113c0,-1.17083 1.57908,-3.17574 3.11166,-3.17574c4.33482,0 24.89327,0 24.89327,0v8.03688c0,0 -21.15599,0 -25.30816,0z" data-paper-data="{&quot;index&quot;:null}" fill="#949494" stroke="#000000" stroke-width="3.5"/><path d="M249.75205,193.59649v-25.7407h38.74373v25.7407z" fill="none" stroke="none" stroke-width="0"/></g></g></svg>