<svg version="1.1" xmlns="http://www.w3.org/2000/svg" xmlns:xlink="http://www.w3.org/1999/xlink" width="142.67617" height="69.8977" viewBox="0,0,142.67617,69.8977"><g transform="translate(-2.10947,-6.70289)"><g data-paper-data="{&quot;isPaintingLayer&quot;:true}" fill-rule="nonzero" stroke="#000000" stroke-linejoin="miter" stroke-miterlimit="10" stroke-dasharray="" stroke-dashoffset="0" style="mix-blend-mode: normal"><path d="M142.78564,41.65195c0,18.01969 -2.08613,32.66115 -28.85687,32.94796c-0.26643,0.00285 -78.03182,0.00311 -78.27315,0.00077c-26.80571,-0.26003 -31.54615,-14.91209 -31.54615,-32.94873c0,-18.04441 4.75902,-32.70132 31.58075,-32.94906c0.22983,-0.00212 77.85247,-0.00233 78.0594,-0.0006c26.85359,0.22324 29.03602,14.8898 29.03602,32.94967z" fill="#9a9a9a" stroke-width="4" stroke-linecap="butt"/><path d="M130.39618,41.65191c0,14.94598 -1.73029,27.08997 -23.9346,27.32785c-0.22097,0.00236 -64.72152,0.00258 -64.92168,0.00064c-22.23332,-0.21568 -26.16515,-12.36846 -26.16515,-27.32849c0,-14.96648 3.94725,-27.12328 26.19386,-27.32876c0.19063,-0.00176 64.57276,-0.00193 64.74439,-0.0005c22.27303,0.18516 24.08319,12.34997 24.08319,27.32927z" fill="#50ccff" stroke-width="3" stroke-linecap="butt"/><g stroke-width="3"><path d="M81.84644,55.60557l-5.73691,-24.06934l16.33722,-3.89397l5.73691,24.06934z" fill="#848484" stroke-linecap="butt"/><path d="M49.66942,50.23477c0,0 -2.53015,-10.6153 -3.36065,-14.09969c-0.4892,-2.05244 0.4529,-5.27798 2.25466,-5.70743c6.78154,-1.61638 48.45935,-11.55025 48.45935,-11.55025c0,0 2.83024,11.87435 3.6332,15.24317c0.39819,1.67062 -0.02853,3.96838 -1.17315,4.2412c-3.31069,0.7891 -37.91233,9.03638 -37.91233,9.03638l4.21446,15.47005l-12.12675,2.7586z" fill="#848484" stroke-linecap="butt"/><path d="M73.02478,46.2419c0,0 1.94926,4.83096 0.42501,6.34957c-1.26873,1.26404 -8.94541,2.13929 -8.94541,2.13929" fill="none" stroke-linecap="round"/></g></g></g></svg>